<?xml version="1.0" encoding="utf-8"?>
<!-- Generator: Adobe Illustrator 24.3.0, SVG Export Plug-In . SVG Version: 6.00 Build 0)  -->
<svg version="1.1" id="Calque_1" xmlns="http://www.w3.org/2000/svg" xmlns:xlink="http://www.w3.org/1999/xlink" x="0px" y="0px"
	 viewBox="0 0 197.58 253.25" style="enable-background:new 0 0 197.58 253.25;" xml:space="preserve">
<style type="text/css">
	.st0{fill:#F9C34B;}
</style>
<g>
	<circle class="st0" cx="98.64" cy="85.7" r="52.22"/>
	<g>
		<line x1="64.33" y1="218.51" x2="132.94" y2="218.51"/>
		<rect x="64.33" y="217.25" width="68.61" height="2.53"/>
	</g>
	<g>
		<path d="M122.33,191.49h-10.71c-2.03,0-3.31-0.81-3.8-2.41c-0.18-0.58-2.48-7.77-3.31-10.37c-1.73-0.58-3.43-1.28-5.05-2.09
			c-2.44,1.26-9.23,4.75-9.77,5.04c-1.48,0.78-2.96,0.44-4.4-0.99l-7.57-7.57c-1.43-1.43-1.76-2.91-0.99-4.39
			c0.29-0.54,3.77-7.39,5.01-9.84c-0.8-1.6-1.48-3.26-2.05-4.96c-2.61-0.84-9.88-3.17-10.47-3.35c-1.6-0.5-2.41-1.78-2.41-3.8
			v-10.71c0-2.03,0.81-3.31,2.41-3.8c0.59-0.18,7.86-2.51,10.47-3.35c0.6-1.79,1.33-3.54,2.19-5.23c-1.28-2.48-4.86-9.43-5.14-9.97
			c-0.54-1.02-0.81-2.61,0.98-4.4l7.57-7.57c1.44-1.44,2.92-1.77,4.4-0.98l10.09,5.29c1.52-0.74,3.06-1.37,4.67-1.91
			c0.84-2.64,3.2-10,3.38-10.59c0.49-1.6,1.77-2.41,3.8-2.41h10.71c2.03,0,3.31,0.81,3.8,2.41c0.18,0.59,2.54,7.95,3.38,10.57
			c1.66,0.55,3.35,1.25,4.99,2.07c2.44-1.26,9.23-4.75,9.78-5.04c1.48-0.78,2.96-0.45,4.39,0.99l7.57,7.57
			c1.79,1.79,1.52,3.38,0.98,4.4c-0.28,0.54-3.78,7.33-5.04,9.77c0.8,1.62,1.5,3.29,2.07,4.99c2.61,0.84,9.89,3.2,10.48,3.38
			c1.6,0.5,2.41,1.78,2.41,3.8v10.71c0,2.03-0.81,3.31-2.41,3.8c-0.59,0.18-7.86,2.51-10.47,3.35c-0.54,1.6-1.18,3.18-1.93,4.71
			c1.21,2.41,4.6,9.14,4.88,9.68c0.78,1.48,0.45,2.96-0.98,4.4l-7.58,7.57c-1.43,1.44-2.91,1.76-4.39,0.99
			c-0.54-0.29-7.08-3.58-9.47-4.79c-1.71,0.87-3.49,1.62-5.3,2.23c-0.84,2.59-3.2,9.81-3.38,10.39
			C125.64,190.68,124.36,191.49,122.33,191.49z M111.35,187.69c0.07,0.01,0.16,0.01,0.26,0.01h10.71c0.11,0,0.2,0,0.26-0.01
			c0.59-1.84,3.61-11.1,3.61-11.1c0.19-0.59,0.66-1.04,1.25-1.23c2.21-0.68,4.38-1.59,6.44-2.7c0.55-0.3,1.21-0.31,1.76-0.03
			c0,0,8.46,4.26,10.15,5.13c0.05-0.05,0.12-0.11,0.19-0.18l7.58-7.57c0.08-0.08,0.14-0.14,0.18-0.2
			c-0.88-1.71-5.22-10.35-5.22-10.35c-0.27-0.54-0.27-1.19,0.01-1.72c0.98-1.89,1.79-3.88,2.41-5.9c0.18-0.6,0.64-1.06,1.23-1.25
			c0,0,9.33-2.99,11.17-3.57c0-0.07,0.01-0.16,0.01-0.26v-10.71c0-0.11,0-0.2-0.01-0.26c-1.84-0.59-11.18-3.61-11.18-3.61
			c-0.59-0.19-1.05-0.66-1.23-1.25c-0.65-2.12-1.51-4.19-2.56-6.17c-0.29-0.55-0.3-1.21-0.01-1.76c0,0,4.49-8.72,5.37-10.43
			c-0.05-0.05-0.1-0.12-0.18-0.19l-7.58-7.57c-0.08-0.08-0.14-0.14-0.19-0.18c-1.72,0.89-10.42,5.37-10.42,5.37
			c-0.55,0.28-1.21,0.28-1.76-0.01c-1.97-1.04-4.04-1.9-6.16-2.56c-0.59-0.18-1.06-0.64-1.25-1.24c0,0-3.02-9.43-3.6-11.27
			c-0.07,0-0.16-0.01-0.26-0.01h-10.71c-0.11,0-0.19,0-0.26,0.01c-0.59,1.86-3.61,11.28-3.61,11.28c-0.19,0.59-0.66,1.05-1.25,1.24
			c-2.06,0.63-3.98,1.42-5.88,2.4c-0.55,0.28-1.2,0.29-1.75,0l-10.71-5.61c-0.05,0.04-0.12,0.1-0.19,0.18l-7.57,7.58
			c-0.08,0.08-0.13,0.14-0.18,0.19c0.9,1.74,5.48,10.63,5.48,10.63c0.29,0.56,0.28,1.22-0.02,1.77c-1.1,2.04-2,4.19-2.67,6.39
			c-0.18,0.6-0.64,1.06-1.23,1.25c0,0-9.33,2.99-11.17,3.57c0,0.07-0.01,0.16-0.01,0.26v10.71c0,0.11,0,0.2,0.01,0.26
			c1.84,0.58,11.17,3.57,11.17,3.57c0.59,0.19,1.05,0.65,1.23,1.25c0.65,2.12,1.5,4.18,2.54,6.14c0.29,0.55,0.29,1.2,0.01,1.75
			c0,0-4.46,8.78-5.35,10.5c0.05,0.05,0.1,0.12,0.18,0.2l7.57,7.57c0.08,0.08,0.14,0.14,0.19,0.18c1.71-0.89,10.42-5.37,10.42-5.37
			c0.55-0.28,1.21-0.28,1.76,0.01c1.98,1.05,4.07,1.92,6.23,2.58c0.59,0.18,1.06,0.64,1.25,1.24
			C107.81,176.62,110.78,185.87,111.35,187.69z"/>
		<path d="M116.97,160.73c-10.65,0-19.32-8.67-19.32-19.32s8.67-19.33,19.32-19.33s19.32,8.67,19.32,19.33
			S127.63,160.73,116.97,160.73z M116.97,125.87c-8.56,0-15.53,6.97-15.53,15.53s6.97,15.53,15.53,15.53s15.53-6.97,15.53-15.53
			S125.53,125.87,116.97,125.87z"/>
		<path d="M57.39,126.48c-0.49,0-1.04-0.11-1.68-0.39l-7.24-3.17c-1.99-0.87-2.27-2.26-2.15-3.27c0.05-0.43,0.56-5.65,0.77-7.84
			c-0.86-0.8-1.68-1.65-2.44-2.54c-2.2,0.14-7.4,0.46-7.83,0.5c-1.02,0.07-2.4-0.26-3.18-2.28l-2.88-7.36
			c-0.79-2.02-0.01-3.2,0.79-3.83c0.34-0.27,4.39-3.56,6.09-4.95c-0.05-1.25-0.02-2.5,0.09-3.75c-1.68-1.48-5.69-5.01-6.02-5.29
			c-0.77-0.67-1.51-1.88-0.64-3.86l3.17-7.24c0.87-1.99,2.25-2.27,3.26-2.15c0.44,0.05,5.86,0.65,8.1,0.9
			c0.75-0.8,1.54-1.55,2.38-2.26c-0.14-2.21-0.47-7.48-0.5-7.92c-0.08-1.01,0.26-2.39,2.28-3.18l7.35-2.88c2.03-0.79,3.2,0,3.83,0.8
			c0.27,0.34,3.6,4.43,5,6.15c1.18-0.05,2.37-0.02,3.55,0.07c1.46-1.65,4.9-5.56,5.19-5.89c0.66-0.77,1.87-1.51,3.86-0.63l7.24,3.17
			c1.99,0.87,2.27,2.26,2.15,3.27c-0.05,0.43-0.58,5.62-0.81,7.81c0.87,0.8,1.69,1.65,2.46,2.56c2.2-0.13,7.41-0.44,7.85-0.48
			c1.03-0.06,2.4,0.26,3.18,2.28l2.88,7.35c0.79,2.02,0.01,3.2-0.79,3.83c-0.33,0.27-4.38,3.56-6.09,4.95
			c0.05,1.1,0.03,2.21-0.05,3.31l2.47,2.22c0.78,0.7,0.85,1.9,0.15,2.68c-0.7,0.78-1.9,0.84-2.68,0.15l-3.18-2.86
			c-0.45-0.41-0.68-1.01-0.62-1.61c0.16-1.53,0.19-3.08,0.07-4.61c-0.05-0.62,0.21-1.22,0.7-1.61c0,0,4.86-3.95,6.42-5.22
			l-2.74-7.04c-1.99,0.13-8.29,0.5-8.29,0.5c-0.63,0.04-1.21-0.23-1.6-0.71c-1.01-1.26-2.13-2.43-3.35-3.48
			c-0.47-0.41-0.72-1.02-0.65-1.64c0,0,0.64-6.23,0.85-8.23l-6.92-3.04c-1.32,1.5-5.48,6.22-5.48,6.22
			c-0.41,0.46-1.03,0.69-1.64,0.63c-1.6-0.19-3.22-0.22-4.83-0.1c-1.14,0.02-1.16,0.01-6.89-7.18l-7.04,2.74
			c0.13,2.01,0.53,8.36,0.53,8.36c0.04,0.62-0.23,1.22-0.71,1.61c-1.23,0.97-2.31,2.01-3.33,3.17c-0.41,0.47-1.01,0.71-1.64,0.63
			c0,0-6.45-0.71-8.49-0.94l-3.04,6.92c1.52,1.33,6.35,5.59,6.35,5.59c0.47,0.41,0.71,1.03,0.63,1.65c-0.2,1.66-0.24,3.35-0.12,5.01
			c0.05,0.62-0.21,1.22-0.7,1.62c0,0-4.86,3.95-6.42,5.22l2.74,7.05c1.99-0.13,8.27-0.52,8.27-0.52c0.62-0.08,1.22,0.23,1.6,0.71
			c1,1.26,2.12,2.42,3.33,3.47c0.47,0.41,0.71,1.01,0.65,1.62c0,0-0.61,6.27-0.81,8.27l6.92,3.05c1.32-1.5,5.48-6.22,5.48-6.22
			c0.41-0.47,1.03-0.7,1.64-0.63c1.61,0.19,3.25,0.22,4.88,0.1c0.62-0.03,1.22,0.21,1.62,0.69l2.85,3.5
			c0.66,0.81,0.54,2.01-0.28,2.67c-0.81,0.66-2.01,0.53-2.67-0.28l-2.23-2.75c-1.2,0.04-2.4,0.03-3.6-0.07
			c-1.46,1.65-4.9,5.56-5.19,5.89C59.11,125.97,58.41,126.48,57.39,126.48z M50.09,120.08L50.09,120.08L50.09,120.08z M100.33,81.03
			C100.33,81.04,100.33,81.04,100.33,81.03C100.33,81.04,100.33,81.04,100.33,81.03z M57.98,56.88
			C57.98,56.88,57.98,56.88,57.98,56.88C57.98,56.88,57.98,56.88,57.98,56.88z"/>
		<path d="M67.14,104.9c-5.9,0-11.48-3.56-13.75-9.37l0,0c-2.96-7.57,0.79-16.14,8.36-19.11c7.58-2.96,16.14,0.79,19.1,8.36
			c2.96,7.57-0.79,16.14-8.36,19.11C70.74,104.57,68.92,104.9,67.14,104.9z M56.92,94.14c2.2,5.62,8.56,8.41,14.19,6.21
			c5.62-2.2,8.41-8.57,6.21-14.19c-2.2-5.62-8.56-8.4-14.19-6.21C57.51,82.15,54.72,88.52,56.92,94.14L56.92,94.14z"/>
	</g>
</g>
</svg>
