<?xml version="1.0" encoding="utf-8"?>
<!-- Generator: Adobe Illustrator 24.3.0, SVG Export Plug-In . SVG Version: 6.00 Build 0)  -->
<svg version="1.1" id="Calque_1" xmlns="http://www.w3.org/2000/svg" xmlns:xlink="http://www.w3.org/1999/xlink" x="0px" y="0px"
	 viewBox="50 0 1500 200" style="enable-background:new 0 0 573 244;" xml:space="preserve">
<g>
	<path d="M55.44,108.41c0-0.34,0.04-0.59,0.13-0.76l15.7-43.7c0.17-0.46,0.37-0.79,0.6-0.98c0.23-0.19,0.58-0.28,1.04-0.28h9.46
		c0.46,0,0.86,0.13,1.2,0.38c0.34,0.25,0.57,0.59,0.69,1.01l15.57,43.7c0.08,0.25,0.13,0.44,0.13,0.57c0,0.34-0.07,0.61-0.22,0.82
		c-0.15,0.21-0.37,0.32-0.66,0.32h-9.27c-0.63,0-1.03-0.29-1.2-0.88l-3.28-9.21c-0.08-0.25-0.18-0.43-0.28-0.54
		c-0.11-0.1-0.28-0.16-0.54-0.16H69.12c-0.42,0-0.69,0.21-0.82,0.63l-3.34,9.33c-0.25,0.55-0.69,0.82-1.32,0.82h-7.25
		C55.76,109.48,55.44,109.13,55.44,108.41z M81.92,90.32c0.42,0,0.63-0.17,0.63-0.5c0-0.25-0.02-0.44-0.06-0.57l-5.3-14.75
		c-0.13-0.25-0.27-0.38-0.44-0.38c-0.13,0-0.25,0.15-0.38,0.44l-5.36,14.69c-0.08,0.25-0.13,0.44-0.13,0.57
		c0,0.34,0.23,0.5,0.69,0.5H81.92z"/>
	<path d="M139.96,87.83c-3.13,2.5-7.26,3.75-12.39,3.75h-9.46c-0.46,0-0.69,0.23-0.69,0.69v15.76c0,0.97-0.55,1.45-1.64,1.45h-8.07
		c-0.5,0-0.85-0.1-1.04-0.32c-0.19-0.21-0.28-0.52-0.28-0.95V63.9c0-0.8,0.34-1.2,1.01-1.2h18.92c3.49,0,6.61,0.54,9.36,1.61
		c2.75,1.07,4.94,2.7,6.56,4.89c1.62,2.19,2.43,4.88,2.43,8.07C144.66,81.8,143.09,85.33,139.96,87.83z M131.23,72.22
		c-1.39-1.09-3.26-1.64-5.61-1.64h-7c-0.42,0-0.73,0.08-0.91,0.25c-0.19,0.17-0.28,0.46-0.28,0.88V82.5c0,0.42,0.06,0.73,0.19,0.91
		c0.13,0.19,0.36,0.28,0.69,0.28h7.76c2.23,0,3.99-0.59,5.3-1.77c1.3-1.18,1.95-2.8,1.95-4.86
		C133.31,74.93,132.62,73.31,131.23,72.22z"/>
	<path d="M185.05,87.83c-3.13,2.5-7.26,3.75-12.39,3.75h-9.46c-0.46,0-0.69,0.23-0.69,0.69v15.76c0,0.97-0.55,1.45-1.64,1.45h-8.07
		c-0.5,0-0.85-0.1-1.04-0.32c-0.19-0.21-0.28-0.52-0.28-0.95V63.9c0-0.8,0.34-1.2,1.01-1.2h18.92c3.49,0,6.61,0.54,9.36,1.61
		c2.75,1.07,4.94,2.7,6.56,4.89c1.62,2.19,2.43,4.88,2.43,8.07C189.74,81.8,188.18,85.33,185.05,87.83z M176.31,72.22
		c-1.39-1.09-3.26-1.64-5.61-1.64h-7c-0.42,0-0.73,0.08-0.91,0.25c-0.19,0.17-0.28,0.46-0.28,0.88V82.5c0,0.42,0.06,0.73,0.19,0.91
		c0.13,0.19,0.36,0.28,0.69,0.28h7.76c2.23,0,3.99-0.59,5.3-1.77c1.3-1.18,1.95-2.8,1.95-4.86
		C178.39,74.93,177.7,73.31,176.31,72.22z"/>
	<path d="M197.56,62.7h31.78c0.63,0,0.95,0.36,0.95,1.07l-0.06,5.67c0,0.88-0.44,1.32-1.32,1.32h-20.11c-0.8,0-1.2,0.34-1.2,1.01
		v9.14c0,0.71,0.32,1.07,0.95,1.07h13.37c0.71,0,1.07,0.34,1.07,1.01v6.05c0,0.59-0.34,0.88-1.01,0.88h-13.49
		c-0.59,0-0.88,0.25-0.88,0.76v9.9c0,0.29,0.05,0.5,0.16,0.63c0.1,0.13,0.28,0.19,0.54,0.19h21.56c0.76,0,1.13,0.32,1.13,0.95v5.99
		c0,0.76-0.42,1.13-1.26,1.13h-31.78c-0.5,0-0.86-0.1-1.07-0.32c-0.21-0.21-0.32-0.55-0.32-1.01V63.9
		C196.55,63.1,196.89,62.7,197.56,62.7z"/>
	<path d="M238.8,62.7h9.02c0.67,0,1.01,0.38,1.01,1.13v36.76c0,0.29,0.05,0.5,0.16,0.63c0.1,0.13,0.28,0.19,0.54,0.19h20.11
		c0.76,0,1.13,0.32,1.13,0.95v5.99c0,0.34-0.11,0.61-0.32,0.82c-0.21,0.21-0.5,0.32-0.88,0.32h-30.39c-0.5,0-0.86-0.1-1.07-0.32
		c-0.21-0.21-0.32-0.55-0.32-1.01V63.9C237.79,63.1,238.12,62.7,238.8,62.7z"/>
	<path d="M300.43,70.87c-1.41-0.69-3.25-1.04-5.52-1.04c-2.56,0-4.52,0.46-5.86,1.39c-1.35,0.93-2.02,2.14-2.02,3.66
		c0,2.19,1.7,3.78,5.11,4.79l9.96,2.84c3.74,1.05,6.53,2.71,8.35,4.98s2.74,5,2.74,8.2c0,2.94-0.76,5.5-2.27,7.66
		c-1.51,2.17-3.69,3.84-6.53,5.01s-6.17,1.77-9.99,1.77c-4.29,0-8.16-0.73-11.6-2.18c-3.45-1.45-5.97-3.44-7.57-5.96
		c-0.17-0.29-0.25-0.57-0.25-0.82c0-0.34,0.21-0.69,0.63-1.07l4.85-3.34c0.42-0.25,0.8-0.38,1.13-0.38c0.38,0,0.69,0.17,0.95,0.5
		c1.55,2.02,3.13,3.45,4.73,4.29c1.6,0.84,3.72,1.26,6.37,1.26c2.82,0,5.02-0.44,6.62-1.32c1.6-0.88,2.4-2.21,2.4-3.97
		c0-1.13-0.4-2.1-1.2-2.9c-0.8-0.8-2.14-1.49-4.04-2.08l-9.52-2.71c-3.62-1.01-6.41-2.7-8.39-5.08c-1.98-2.37-2.96-5.08-2.96-8.1
		c0-2.69,0.75-5.11,2.24-7.25c1.49-2.14,3.6-3.84,6.34-5.08c2.73-1.24,5.88-1.86,9.46-1.86c3.53,0,6.77,0.6,9.71,1.8
		c2.94,1.2,5.19,2.81,6.75,4.82c0.25,0.34,0.38,0.63,0.38,0.88c0,0.25-0.13,0.48-0.38,0.69l-5.3,3.91
		c-0.25,0.17-0.44,0.25-0.57,0.25c-0.21,0-0.55-0.23-1.01-0.69C303.09,72.52,301.84,71.56,300.43,70.87z"/>
</g>
<g>
	<path d="M176.21,181.19c0-0.34,0.04-0.59,0.13-0.76l15.7-43.7c0.17-0.46,0.37-0.79,0.6-0.98c0.23-0.19,0.58-0.28,1.04-0.28h9.46
		c0.46,0,0.86,0.13,1.2,0.38c0.34,0.25,0.57,0.59,0.69,1.01l15.57,43.7c0.08,0.25,0.13,0.44,0.13,0.57c0,0.34-0.07,0.61-0.22,0.82
		c-0.15,0.21-0.37,0.32-0.66,0.32h-9.27c-0.63,0-1.03-0.29-1.2-0.88l-3.28-9.21c-0.08-0.25-0.18-0.43-0.28-0.54
		c-0.11-0.1-0.28-0.16-0.54-0.16h-15.38c-0.42,0-0.69,0.21-0.82,0.63l-3.34,9.33c-0.25,0.55-0.69,0.82-1.32,0.82h-7.25
		C176.52,182.27,176.21,181.91,176.21,181.19z M190.9,121.58c0.21-0.1,0.44-0.12,0.69-0.03l14.82,6.24c0.34,0.13,0.5,0.38,0.5,0.76
		c0,0.21-0.04,0.38-0.13,0.5l-0.76,2.21c-0.17,0.5-0.46,0.76-0.88,0.76c-0.25,0-0.44-0.02-0.57-0.06l-14.63-3.91
		c-0.72-0.25-1.07-0.61-1.07-1.07c0-0.17,0.04-0.38,0.13-0.63l1.45-4.22C190.54,121.86,190.69,121.68,190.9,121.58z M202.69,163.1
		c0.42,0,0.63-0.17,0.63-0.5c0-0.25-0.02-0.44-0.06-0.57l-5.3-14.75c-0.13-0.25-0.27-0.38-0.44-0.38c-0.13,0-0.25,0.15-0.38,0.44
		l-5.36,14.69c-0.08,0.25-0.13,0.44-0.13,0.57c0,0.34,0.23,0.5,0.69,0.5H202.69z"/>
	<path d="M241.15,135.48h9.02c0.67,0,1.01,0.38,1.01,1.13v36.76c0,0.29,0.05,0.5,0.16,0.63c0.1,0.13,0.28,0.19,0.54,0.19h20.11
		c0.76,0,1.13,0.32,1.13,0.95v5.99c0,0.34-0.11,0.61-0.32,0.82c-0.21,0.21-0.5,0.32-0.88,0.32h-30.39c-0.5,0-0.86-0.1-1.07-0.32
		c-0.21-0.21-0.32-0.55-0.32-1.01v-44.26C240.14,135.88,240.48,135.48,241.15,135.48z"/>
	<path d="M268.39,153.51c-0.13-0.25-0.15-0.5-0.06-0.76l2.71-6.24c0.17-0.5,0.25-0.8,0.25-0.88c0-0.34-0.25-0.57-0.76-0.69
		l-1.01-0.06c-0.46-0.04-0.79-0.15-0.98-0.32c-0.19-0.17-0.28-0.44-0.28-0.82v-7.19c0-0.71,0.32-1.07,0.95-1.07h7.94
		c0.59,0,0.88,0.31,0.88,0.95v6.81c0,0.25-0.08,0.5-0.25,0.76l-5.67,8.89c-0.21,0.34-0.5,0.59-0.88,0.76
		c-0.38,0.17-0.76,0.25-1.13,0.25h-1.07C268.72,153.89,268.51,153.77,268.39,153.51z"/>
	<path d="M275.32,181.19c0-0.34,0.04-0.59,0.13-0.76l15.7-43.7c0.17-0.46,0.37-0.79,0.6-0.98c0.23-0.19,0.58-0.28,1.04-0.28h9.46
		c0.46,0,0.86,0.13,1.2,0.38c0.34,0.25,0.57,0.59,0.69,1.01l15.57,43.7c0.08,0.25,0.13,0.44,0.13,0.57c0,0.34-0.07,0.61-0.22,0.82
		c-0.15,0.21-0.37,0.32-0.66,0.32h-9.27c-0.63,0-1.03-0.29-1.2-0.88l-3.28-9.21c-0.08-0.25-0.18-0.43-0.28-0.54
		c-0.11-0.1-0.28-0.16-0.54-0.16h-15.38c-0.42,0-0.69,0.21-0.82,0.63l-3.34,9.33c-0.25,0.55-0.69,0.82-1.32,0.82h-7.25
		C275.64,182.27,275.32,181.91,275.32,181.19z M301.81,163.1c0.42,0,0.63-0.17,0.63-0.5c0-0.25-0.02-0.44-0.06-0.57l-5.3-14.75
		c-0.13-0.25-0.27-0.38-0.44-0.38c-0.13,0-0.25,0.15-0.38,0.44l-5.36,14.69c-0.08,0.25-0.13,0.44-0.13,0.57
		c0,0.34,0.23,0.5,0.69,0.5H301.81z"/>
	<path d="M351.74,136.68c2.69,1.22,4.91,2.88,6.65,4.98c1.74,2.1,2.85,4.46,3.31,7.06c0.08,0.29,0.13,0.63,0.13,1.01
		c0,0.25-0.06,0.42-0.19,0.5c-0.13,0.08-0.31,0.15-0.57,0.19l-8.51,0.57c-0.38,0-0.62-0.06-0.73-0.19c-0.11-0.13-0.2-0.38-0.28-0.76
		c-0.46-2.31-1.39-4.14-2.77-5.49c-1.39-1.34-3.24-2.02-5.55-2.02c-6.73,0-10.09,5.38-10.09,16.14c0,5.59,0.84,9.67,2.52,12.23
		c1.68,2.56,4.25,3.85,7.69,3.85c2.52,0,4.66-0.63,6.4-1.89c1.74-1.26,3.16-3.32,4.26-6.18c0.13-0.29,0.4-0.44,0.82-0.44
		c0.25,0,0.44,0.02,0.57,0.06l6.18,1.32c0.59,0.21,0.82,0.74,0.69,1.58c-0.42,1.81-1.4,3.76-2.93,5.86
		c-1.54,2.1-3.69,3.93-6.46,5.49c-2.77,1.56-6.1,2.33-9.96,2.33c-4.33,0-8.1-1.02-11.32-3.06c-3.22-2.04-5.69-4.9-7.41-8.57
		c-1.72-3.68-2.58-7.93-2.58-12.77c0-4.79,0.86-8.97,2.58-12.55c1.72-3.57,4.19-6.31,7.41-8.23c3.22-1.91,6.99-2.87,11.32-2.87
		C346.11,134.85,349.05,135.46,351.74,136.68z"/>
	<path d="M366.62,136.62c0-0.34,0.12-0.61,0.35-0.82c0.23-0.21,0.54-0.31,0.91-0.31h36.19c0.84,0,1.26,0.38,1.26,1.13v5.86
		c0,0.63-0.38,0.95-1.13,0.95h-11.79c-0.46,0-0.69,0.21-0.69,0.63v37.01c0,0.8-0.36,1.2-1.07,1.2h-9.02c-0.63,0-0.95-0.36-0.95-1.07
		v-36.95c0-0.29-0.05-0.5-0.16-0.63c-0.11-0.13-0.28-0.19-0.54-0.19h-12.17c-0.8,0-1.2-0.32-1.2-0.95V136.62z"/>
	<path d="M421.92,135.48c0.67,0,1.01,0.38,1.01,1.13v44.14c0,0.55-0.13,0.94-0.38,1.17c-0.25,0.23-0.69,0.35-1.32,0.35h-7.94
		c-0.5,0-0.86-0.1-1.07-0.32c-0.21-0.21-0.31-0.55-0.31-1.01v-44.26c0-0.8,0.34-1.2,1.01-1.2H421.92z"/>
	<path d="M440.3,180.03c-3.26-1.91-5.76-4.66-7.5-8.23c-1.75-3.57-2.62-7.82-2.62-12.74c0-4.96,0.88-9.26,2.65-12.89
		c1.77-3.64,4.28-6.43,7.54-8.39c3.26-1.95,7.07-2.93,11.44-2.93c4.33,0,8.11,0.98,11.35,2.93c3.24,1.95,5.74,4.75,7.5,8.39
		c1.76,3.64,2.65,7.91,2.65,12.83c0,4.88-0.87,9.11-2.62,12.7c-1.75,3.59-4.24,6.36-7.47,8.29c-3.24,1.93-7.04,2.9-11.41,2.9
		C447.39,182.9,443.56,181.94,440.3,180.03z M459.41,171.36c1.58-2.52,2.36-6.6,2.36-12.23c0-5.76-0.81-9.96-2.43-12.61
		c-1.62-2.65-4.13-3.97-7.54-3.97c-3.49,0-6.04,1.32-7.66,3.97c-1.62,2.65-2.43,6.85-2.43,12.61c0,5.63,0.8,9.71,2.4,12.23
		c1.6,2.52,4.16,3.78,7.69,3.78C455.3,175.14,457.83,173.88,459.41,171.36z"/>
	<path d="M518.77,135.48c0.55,0,0.82,0.31,0.82,0.95v44.83c0,0.29-0.12,0.54-0.35,0.73c-0.23,0.19-0.52,0.28-0.85,0.28h-6.37
		c-0.38,0-0.67-0.04-0.88-0.13c-0.21-0.08-0.44-0.29-0.69-0.63l-20.11-28.25c-0.17-0.21-0.33-0.29-0.47-0.25
		c-0.15,0.04-0.22,0.17-0.22,0.38v27.74v0.19c0,0.34-0.09,0.58-0.28,0.73c-0.19,0.15-0.52,0.22-0.98,0.22h-6.56
		c-0.84,0-1.26-0.36-1.26-1.07v-44.52c0-0.8,0.38-1.2,1.13-1.2h7.63c0.5,0,0.86,0.05,1.07,0.16c0.21,0.11,0.46,0.37,0.76,0.79
		l18.54,26.42c0.25,0.34,0.46,0.5,0.63,0.5c0.21,0,0.31-0.23,0.31-0.69v-26.04c0-0.76,0.38-1.13,1.14-1.13H518.77z"/>
</g>
<g>
	<line x1="53.36" y1="158.2" x2="163.85" y2="158.2"/>
	<rect x="53.36" y="156.16" width="110.49" height="4.07"/>
</g>
</svg>
