<?xml version="1.0" encoding="utf-8"?>
<!-- Generator: Adobe Illustrator 24.3.0, SVG Export Plug-In . SVG Version: 6.00 Build 0)  -->
<svg version="1.1" id="Calque_1" xmlns="http://www.w3.org/2000/svg" xmlns:xlink="http://www.w3.org/1999/xlink" x="0px" y="0px"
	 viewBox="0 0 101.13 101.13" style="enable-background:new 0 0 101.13 101.13;" xml:space="preserve">
<g>
	<path d="M84.09,88.9c-1.21,0-2.41-0.57-3.54-1.69l-8.41-8.38c-0.47-0.47-0.47-1.23,0-1.7c0.47-0.47,1.23-0.47,1.7,0l8.41,8.39
		c1.35,1.35,2.45,1.32,3.9-0.14c1.17-1.17,0.41-2.52-0.44-3.44c-0.49-0.54-13.97-14.02-30.68-30.69c-0.47-0.47-0.47-1.23,0-1.7
		c15.69-15.73,30.57-30.66,30.57-30.66c0.69-0.69,1.01-1.32,0.98-1.93c-0.03-0.6-0.41-1.26-1.12-1.97
		c-1.17-1.17-2.52-0.41-3.44,0.44c-0.56,0.52-14.85,14.8-30.58,30.57c-0.22,0.23-0.53,0.35-0.85,0.35c0,0,0,0,0,0
		c-0.32,0-0.62-0.13-0.85-0.35l-22.16-22.1c-0.47-0.47-0.47-1.23,0-1.7c0.47-0.47,1.23-0.47,1.7,0L50.6,43.43
		c14.03-14.06,29.2-29.23,29.81-29.79c2.29-2.1,4.88-2.24,6.76-0.36c1.14,1.14,1.75,2.33,1.82,3.53c0.07,1.31-0.49,2.58-1.68,3.76
		c0,0-14.35,14.4-29.73,29.81c14.59,14.56,29.36,29.32,29.9,29.92c2.1,2.29,2.24,4.88,0.36,6.76C86.63,88.28,85.35,88.9,84.09,88.9z
		"/>
	<path d="M16.74,89.17c-1.09,0-2.12-0.44-3-1.31c-0.91-0.91-1.49-2.16-1.59-3.42c-0.11-1.45,0.4-2.82,1.45-3.87l30.07-30.15
		c-13.58-13.55-29.46-29.4-30.02-30.02c-2.1-2.29-2.24-4.88-0.36-6.76c1.83-1.83,5.06-2.38,7.29-0.14l4.35,4.34
		c0.47,0.47,0.47,1.23,0,1.7c-0.47,0.47-1.23,0.47-1.7,0l-4.36-4.34c-1.22-1.22-2.92-0.84-3.9,0.14c-1.17,1.17-0.41,2.52,0.44,3.44
		c0.46,0.5,11.68,11.72,30.8,30.79c0.47,0.47,0.47,1.23,0,1.7l-30.91,31c-0.7,0.7-0.79,1.47-0.75,1.99c0.05,0.7,0.38,1.4,0.89,1.91
		c1.17,1.17,2.52,0.41,3.44-0.44c0.28-0.26,4.67-4.62,30.9-30.91c0.47-0.47,1.23-0.47,1.7,0l22.37,22.31c0.47,0.47,0.47,1.23,0,1.7
		c-0.47,0.47-1.23,0.47-1.7,0L50.63,57.35C31.12,76.9,20.98,87.04,20.5,87.49C19.28,88.6,17.98,89.17,16.74,89.17z"/>
</g>
</svg>
