<?xml version="1.0" encoding="utf-8"?>
<!-- Generator: Adobe Illustrator 24.3.0, SVG Export Plug-In . SVG Version: 6.00 Build 0)  -->
<svg version="1.1" id="Calque_1" xmlns="http://www.w3.org/2000/svg" xmlns:xlink="http://www.w3.org/1999/xlink" x="0px" y="0px"
	 viewBox="0 0 101.13 101.13" style="enable-background:new 0 0 101.13 101.13;" xml:space="preserve">
<g>
	<path d="M63.86,89.58h-6.05c-1.15,0-1.87-0.46-2.15-1.36c-0.1-0.33-1.4-4.39-1.87-5.86c-0.98-0.33-1.94-0.72-2.86-1.18
		c-1.38,0.71-5.22,2.69-5.52,2.85c-0.84,0.44-1.67,0.25-2.48-0.56l-4.28-4.28c-0.81-0.81-1-1.65-0.56-2.48
		c0.16-0.31,2.13-4.17,2.83-5.56c-0.45-0.9-0.84-1.84-1.16-2.8c-1.48-0.47-5.59-1.79-5.92-1.89c-0.91-0.28-1.36-1-1.36-2.15v-6.05
		c0-1.15,0.46-1.87,1.36-2.15c0.33-0.1,4.44-1.42,5.92-1.89c0.34-1.01,0.75-2,1.24-2.95c-0.72-1.4-2.74-5.33-2.91-5.63
		c-0.3-0.58-0.46-1.48,0.56-2.49l4.28-4.28c0.81-0.81,1.65-1,2.48-0.56l5.7,2.99c0.86-0.42,1.73-0.77,2.64-1.08
		c0.48-1.49,1.81-5.65,1.91-5.98c0.28-0.9,1-1.36,2.15-1.36h6.05c1.15,0,1.87,0.46,2.15,1.36c0.1,0.33,1.43,4.49,1.91,5.98
		c0.94,0.31,1.89,0.71,2.82,1.17c1.38-0.71,5.22-2.69,5.52-2.85c0.83-0.44,1.67-0.26,2.48,0.56l4.28,4.28
		c1.01,1.01,0.86,1.91,0.55,2.49c-0.16,0.3-2.14,4.14-2.85,5.52c0.45,0.91,0.85,1.86,1.17,2.82c1.48,0.48,5.59,1.81,5.92,1.91
		c0.91,0.28,1.36,1,1.36,2.15v6.05c0,1.15-0.46,1.87-1.36,2.15c-0.33,0.1-4.44,1.42-5.92,1.89c-0.3,0.91-0.67,1.8-1.09,2.66
		c0.69,1.36,2.6,5.16,2.76,5.47c0.44,0.84,0.26,1.67-0.56,2.48l-4.28,4.28c-0.81,0.81-1.64,1-2.48,0.56c-0.31-0.16-4-2.03-5.35-2.71
		c-0.97,0.49-1.97,0.91-2.99,1.26c-0.48,1.47-1.81,5.54-1.91,5.87C65.73,89.12,65.01,89.58,63.86,89.58z M57.66,87.43
		c0.04,0,0.09,0.01,0.15,0.01h6.05c0.06,0,0.11,0,0.15-0.01c0.33-1.04,2.04-6.27,2.04-6.27c0.11-0.33,0.37-0.59,0.7-0.69
		c1.25-0.39,2.47-0.9,3.64-1.53c0.31-0.17,0.68-0.17,0.99-0.02c0,0,4.78,2.41,5.73,2.9c0.03-0.03,0.07-0.06,0.11-0.1l4.28-4.28
		c0.04-0.04,0.08-0.08,0.1-0.11c-0.49-0.97-2.95-5.85-2.95-5.85c-0.15-0.31-0.15-0.67,0.01-0.97c0.55-1.07,1.01-2.19,1.36-3.33
		c0.1-0.34,0.36-0.6,0.7-0.71c0,0,5.27-1.69,6.31-2.02c0-0.04,0-0.09,0-0.15v-6.05c0-0.06,0-0.11,0-0.15
		c-1.04-0.33-6.32-2.04-6.32-2.04c-0.33-0.11-0.59-0.37-0.69-0.7c-0.37-1.2-0.86-2.37-1.45-3.48c-0.16-0.31-0.17-0.68-0.01-0.99
		c0,0,2.54-4.93,3.04-5.89c-0.03-0.03-0.06-0.07-0.1-0.11l-4.28-4.28c-0.04-0.04-0.08-0.08-0.11-0.1c-0.97,0.51-5.89,3.04-5.89,3.04
		c-0.31,0.16-0.68,0.16-0.99-0.01c-1.11-0.59-2.28-1.08-3.48-1.44c-0.33-0.1-0.6-0.36-0.71-0.7c0,0-1.71-5.33-2.04-6.37
		c-0.04,0-0.09-0.01-0.15-0.01h-6.05c-0.06,0-0.11,0-0.15,0.01c-0.33,1.05-2.04,6.37-2.04,6.37c-0.11,0.33-0.37,0.6-0.71,0.7
		c-1.16,0.36-2.25,0.8-3.32,1.36c-0.31,0.16-0.68,0.16-0.99,0l-6.05-3.17c-0.03,0.03-0.07,0.06-0.11,0.1l-4.28,4.28
		c-0.04,0.04-0.08,0.08-0.1,0.11c0.51,0.98,3.1,6,3.1,6c0.16,0.32,0.16,0.69-0.01,1c-0.62,1.15-1.13,2.37-1.51,3.61
		c-0.1,0.34-0.36,0.6-0.7,0.71c0,0-5.27,1.69-6.31,2.02c0,0.04,0,0.09,0,0.15v6.05c0,0.06,0,0.11,0,0.15
		c1.04,0.33,6.31,2.02,6.31,2.02c0.33,0.11,0.59,0.37,0.7,0.71c0.37,1.2,0.85,2.36,1.43,3.47c0.16,0.31,0.17,0.68,0.01,0.99
		c0,0-2.52,4.96-3.02,5.93c0.03,0.03,0.06,0.07,0.1,0.11l4.28,4.28c0.04,0.04,0.08,0.08,0.11,0.1c0.97-0.5,5.89-3.04,5.89-3.04
		c0.31-0.16,0.68-0.16,0.99,0.01c1.12,0.59,2.3,1.08,3.52,1.46c0.34,0.1,0.6,0.36,0.71,0.7C55.66,81.18,57.34,86.41,57.66,87.43z"/>
	<path d="M60.84,72.2c-6.02,0-10.92-4.9-10.92-10.92c0-6.02,4.9-10.92,10.92-10.92s10.92,4.9,10.92,10.92
		C71.76,67.3,66.86,72.2,60.84,72.2z M60.84,52.5c-4.84,0-8.77,3.94-8.77,8.78s3.94,8.77,8.77,8.77s8.77-3.94,8.77-8.77
		S65.68,52.5,60.84,52.5z"/>
	<path d="M27.17,52.85c-0.27,0-0.59-0.06-0.95-0.22l-4.09-1.79c-1.12-0.49-1.28-1.28-1.21-1.85c0.03-0.24,0.32-3.19,0.44-4.43
		c-0.49-0.45-0.95-0.93-1.38-1.44c-1.24,0.08-4.18,0.26-4.42,0.28c-0.58,0.04-1.35-0.15-1.8-1.29l-1.63-4.16
		c-0.45-1.14,0-1.81,0.44-2.16c0.19-0.15,2.48-2.01,3.44-2.8c-0.03-0.7-0.01-1.41,0.05-2.12c-0.95-0.84-3.21-2.83-3.4-2.99
		c-0.44-0.38-0.85-1.06-0.36-2.18l1.79-4.09c0.49-1.12,1.27-1.29,1.84-1.22c0.25,0.03,3.31,0.37,4.58,0.51
		c0.42-0.45,0.87-0.88,1.34-1.28c-0.08-1.25-0.27-4.23-0.28-4.48c-0.04-0.57,0.15-1.35,1.29-1.79l4.16-1.63
		c1.15-0.45,1.81,0,2.17,0.45c0.15,0.19,2.03,2.5,2.82,3.47c0.67-0.03,1.34-0.01,2,0.04c0.82-0.93,2.77-3.14,2.93-3.33
		c0.37-0.43,1.06-0.85,2.18-0.36l4.09,1.79c1.12,0.49,1.28,1.28,1.21,1.85c-0.03,0.24-0.33,3.17-0.46,4.41
		c0.49,0.45,0.96,0.94,1.39,1.44c1.24-0.07,4.19-0.25,4.43-0.27c0.58-0.04,1.35,0.15,1.8,1.29l1.63,4.16c0.45,1.14,0,1.81-0.45,2.16
		c-0.19,0.15-2.48,2.01-3.44,2.8c0.03,0.62,0.02,1.25-0.03,1.87l1.4,1.25c0.44,0.39,0.48,1.07,0.08,1.51
		c-0.4,0.44-1.07,0.48-1.51,0.08l-1.8-1.61c-0.26-0.23-0.39-0.57-0.35-0.91c0.09-0.86,0.1-1.74,0.04-2.6
		c-0.03-0.35,0.12-0.69,0.39-0.91c0,0,2.75-2.23,3.63-2.95l-1.55-3.98c-1.13,0.07-4.69,0.28-4.69,0.28c-0.36,0.02-0.69-0.13-0.9-0.4
		c-0.57-0.71-1.2-1.37-1.89-1.96c-0.27-0.23-0.4-0.57-0.37-0.92c0,0,0.36-3.52,0.48-4.65l-3.91-1.72c-0.75,0.85-3.1,3.52-3.1,3.52
		c-0.23,0.26-0.58,0.39-0.93,0.36c-0.9-0.11-1.82-0.12-2.73-0.06c-0.64,0.01-0.66,0-3.89-4.05l-3.98,1.55
		c0.07,1.13,0.3,4.72,0.3,4.72c0.02,0.35-0.13,0.69-0.4,0.91c-0.69,0.55-1.31,1.13-1.88,1.79c-0.23,0.26-0.57,0.4-0.92,0.36
		c0,0-3.64-0.4-4.8-0.53l-1.72,3.91c0.86,0.75,3.59,3.16,3.59,3.16c0.27,0.23,0.4,0.58,0.36,0.93c-0.12,0.94-0.14,1.89-0.07,2.83
		c0.03,0.35-0.12,0.69-0.39,0.91c0,0-2.74,2.23-3.63,2.95l1.55,3.98c1.12-0.07,4.67-0.3,4.67-0.3c0.35-0.04,0.69,0.13,0.91,0.4
		c0.56,0.71,1.2,1.37,1.88,1.96c0.26,0.23,0.4,0.57,0.37,0.92c0,0-0.35,3.54-0.46,4.68l3.91,1.72c0.74-0.85,3.1-3.52,3.1-3.52
		c0.23-0.26,0.58-0.39,0.93-0.36c0.91,0.11,1.84,0.12,2.76,0.05c0.35-0.02,0.69,0.12,0.91,0.39l1.61,1.98
		c0.37,0.46,0.3,1.13-0.16,1.51c-0.46,0.37-1.14,0.3-1.51-0.16l-1.26-1.55C32.68,49,32,48.99,31.33,48.93
		c-0.82,0.93-2.77,3.14-2.93,3.33C28.14,52.56,27.75,52.85,27.17,52.85z M23.04,49.23L23.04,49.23L23.04,49.23z M51.43,27.17
		C51.43,27.17,51.43,27.17,51.43,27.17C51.43,27.17,51.43,27.17,51.43,27.17z M27.5,13.52C27.5,13.52,27.5,13.52,27.5,13.52
		C27.5,13.52,27.5,13.52,27.5,13.52z"/>
	<path d="M32.68,40.65c-3.33,0-6.49-2.01-7.77-5.3l0,0c-1.67-4.28,0.45-9.12,4.72-10.8c4.28-1.67,9.12,0.45,10.8,4.72
		c1.67,4.28-0.45,9.12-4.72,10.8C34.71,40.47,33.69,40.65,32.68,40.65z M26.9,34.57c1.24,3.18,4.84,4.75,8.02,3.51
		c3.18-1.24,4.75-4.84,3.51-8.02c-1.24-3.18-4.84-4.75-8.02-3.51C27.24,27.8,25.66,31.39,26.9,34.57L26.9,34.57z"/>
</g>
</svg>
