<?xml version="1.0" encoding="utf-8"?>
<!-- Generator: Adobe Illustrator 24.3.0, SVG Export Plug-In . SVG Version: 6.00 Build 0)  -->
<svg version="1.1" id="Calque_1" xmlns="http://www.w3.org/2000/svg" xmlns:xlink="http://www.w3.org/1999/xlink" x="0px" y="0px"
	 viewBox="0 0 197.58 253.25" style="enable-background:new 0 0 197.58 253.25;" xml:space="preserve">
<style type="text/css">
	.st0{fill:#6F9B5F;}
</style>
<g>
	<circle class="st0" cx="98.79" cy="85.51" r="52.22"/>
	<g>
		<line x1="64.49" y1="218.7" x2="133.1" y2="218.7"/>
		<rect x="64.49" y="217.44" width="68.61" height="2.53"/>
	</g>
	<g>
		<path d="M50.1,177.17c-8.08,0-12.45-5.65-12.45-10.97v-51.44c0-6.12,3.65-12.29,11.82-12.29c8.09,0,12.45,5.65,12.45,10.97v51.44
			C61.92,171,58.27,177.17,50.1,177.17z M49.47,106.26c-7.44,0-8.02,6.5-8.02,8.49v51.44c0,3.48,3.03,7.18,8.65,7.18
			c7.45,0,8.03-6.5,8.03-8.5v-51.44C58.13,109.96,55.09,106.26,49.47,106.26z"/>
		<path d="M141.9,176.38H82.43c-5.58,0-8.36-2.34-10.81-4.41c-1.48-1.25-2.75-2.32-4.57-2.81c-1.01-0.27-1.61-1.31-1.34-2.32
			c0.27-1.01,1.29-1.61,2.32-1.34c2.63,0.71,4.36,2.17,6.03,3.58c2.23,1.88,4.16,3.51,8.36,3.51h59.47c4.32,0,8.67-2,8.67-6.47
			c0-4.46-3.16-7.13-8.45-7.13h-2.7c-1.05,0-1.9-0.85-1.9-1.9s0.85-1.9,1.9-1.9h7.44c4.61,0,9.27-2.15,9.27-6.94
			c0-4.78-3.38-7.64-9.04-7.64h-7.68c-1.05,0-1.9-0.85-1.9-1.9s0.85-1.9,1.9-1.9h7.25c4.71,0,9.46-2.19,9.46-7.1
			c0-4.89-3.45-7.81-9.23-7.81h-7.49c-1.05,0-1.9-0.85-1.9-1.9c0-1.05,0.85-1.9,1.9-1.9h6.19c5.24,0,10.52-2.45,10.52-7.94
			c0-5.45-3.84-8.71-10.27-8.71h-25.43c-3.72,0-5.13-1.52-5.65-2.8c-0.75-1.81-0.03-4.05,1.92-6l4.07-4.07
			c1.88-1.88,7.25-9.83,7.25-21.29c0-12.03-8.61-12.37-8.69-12.37c-2.08,0-5.17,1.39-5.67,2.95c-1.04,3.54-4.48,13.02-6.71,17.13
			c-1.83,3.36-11.33,12.25-19.41,19.61l-1.15,1.05c-1.27,1.17-3.6,4.33-5.85,7.38c-2.34,3.17-4.75,6.45-6.44,8.12
			c-1.61,1.6-3.69,3.32-6.9,3.92c-1.03,0.2-2.02-0.48-2.22-1.51c-0.19-1.03,0.48-2.02,1.51-2.22c2.07-0.39,3.46-1.43,4.93-2.88
			c1.48-1.47,3.81-4.63,6.06-7.68c2.46-3.34,4.79-6.5,6.33-7.92l1.16-1.06c11.2-10.21,17.46-16.47,18.63-18.62
			c2-3.68,5.4-12.99,6.41-16.43c1.19-3.69,6.16-5.63,9.3-5.63c3.24,0,12.49,2.97,12.49,16.16c0,12.81-6.03,21.64-8.36,23.97
			l-4.07,4.07c-0.96,0.96-1.14,1.72-1.09,1.87c0.06,0.09,0.61,0.45,2.15,0.45h25.43c8.54,0,14.06,4.91,14.06,12.51
			c0,4.16-2.13,7.56-5.67,9.61c3.58,1.93,5.67,5.42,5.67,9.92c0,3.87-1.98,7.03-5.26,8.93c3.33,1.93,5.26,5.3,5.26,9.6
			c0,5.01-3.37,8.82-8.6,10.19c1.95,1.88,3.04,4.52,3.04,7.68C154.37,172.16,149.24,176.38,141.9,176.38z"/>
	</g>
</g>
</svg>
