<?xml version="1.0" encoding="utf-8"?>
<!-- Generator: Adobe Illustrator 24.3.0, SVG Export Plug-In . SVG Version: 6.00 Build 0)  -->
<svg version="1.1" id="Calque_1" xmlns="http://www.w3.org/2000/svg" xmlns:xlink="http://www.w3.org/1999/xlink" x="0px" y="0px"
	 viewBox="80 0 500 200" style="enable-background:new 0 0 573 244;" xml:space="preserve">
<g>
	<path d="M83.75,120.85c0-0.34,0.04-0.59,0.13-0.76l15.7-43.7c0.17-0.46,0.37-0.79,0.6-0.98c0.23-0.19,0.58-0.28,1.04-0.28h9.46
		c0.46,0,0.86,0.13,1.2,0.38c0.34,0.25,0.57,0.59,0.69,1.01l15.57,43.7c0.08,0.25,0.13,0.44,0.13,0.57c0,0.34-0.07,0.61-0.22,0.82
		c-0.15,0.21-0.37,0.32-0.66,0.32h-9.27c-0.63,0-1.03-0.29-1.2-0.88l-3.28-9.21c-0.08-0.25-0.18-0.43-0.28-0.54
		c-0.11-0.1-0.28-0.16-0.54-0.16H97.43c-0.42,0-0.69,0.21-0.82,0.63l-3.34,9.33c-0.25,0.55-0.69,0.82-1.32,0.82H84.7
		C84.07,121.92,83.75,121.56,83.75,120.85z M98.44,61.23c0.21-0.1,0.44-0.12,0.69-0.03l14.82,6.24c0.34,0.13,0.5,0.38,0.5,0.76
		c0,0.21-0.04,0.38-0.13,0.5l-0.76,2.21c-0.17,0.5-0.46,0.76-0.88,0.76c-0.25,0-0.44-0.02-0.57-0.06L97.5,67.69
		c-0.71-0.25-1.07-0.61-1.07-1.07c0-0.17,0.04-0.38,0.13-0.63L98,61.77C98.08,61.51,98.23,61.34,98.44,61.23z M110.23,102.75
		c0.42,0,0.63-0.17,0.63-0.5c0-0.25-0.02-0.44-0.06-0.57l-5.3-14.75c-0.13-0.25-0.27-0.38-0.44-0.38c-0.13,0-0.25,0.15-0.38,0.44
		l-5.36,14.69c-0.08,0.25-0.13,0.44-0.13,0.57c0,0.34,0.23,0.5,0.69,0.5H110.23z"/>
</g>
<g>
	<path d="M255.89,160.82c-3.13,2.5-7.26,3.75-12.39,3.75h-9.46c-0.46,0-0.69,0.23-0.69,0.69v15.76c0,0.97-0.55,1.45-1.64,1.45h-8.07
		c-0.5,0-0.85-0.1-1.04-0.32c-0.19-0.21-0.28-0.53-0.28-0.95v-44.33c0-0.8,0.34-1.2,1.01-1.2h18.92c3.49,0,6.61,0.54,9.36,1.61
		c2.75,1.07,4.94,2.7,6.56,4.89s2.43,4.88,2.43,8.07C260.59,154.8,259.02,158.32,255.89,160.82z M247.16,145.21
		c-1.39-1.09-3.26-1.64-5.61-1.64h-7c-0.42,0-0.72,0.08-0.91,0.25c-0.19,0.17-0.28,0.46-0.28,0.88v10.78c0,0.42,0.06,0.72,0.19,0.91
		s0.36,0.28,0.69,0.28h7.75c2.23,0,3.99-0.59,5.3-1.77c1.3-1.18,1.95-2.79,1.95-4.86C249.24,147.93,248.55,146.31,247.16,145.21z"/>
	<path d="M305.48,181.34c0,0.34-0.11,0.61-0.32,0.82c-0.21,0.21-0.46,0.32-0.76,0.32h-9.27c-0.71,0-1.18-0.38-1.39-1.13l-6.81-17.66
		c-0.13-0.34-0.32-0.57-0.57-0.69s-0.65-0.19-1.2-0.19h-5.99c-0.25,0-0.44,0.07-0.57,0.22c-0.13,0.15-0.19,0.31-0.19,0.47v17.46
		c0,0.55-0.14,0.94-0.41,1.17c-0.27,0.23-0.7,0.35-1.29,0.35h-8.01c-0.5,0-0.85-0.1-1.04-0.32c-0.19-0.21-0.28-0.53-0.28-0.95
		v-44.33c0-0.8,0.34-1.2,1.01-1.2h19.67c5.67,0,10.07,1.11,13.18,3.34c3.11,2.23,4.67,5.4,4.67,9.52c0,3.07-0.82,5.69-2.46,7.85
		c-1.64,2.17-3.7,3.69-6.18,4.57c-0.34,0.13-0.42,0.44-0.25,0.95l8.32,18.85C305.44,181.03,305.48,181.22,305.48,181.34z
		 M292.62,153.82c1.26-1.03,1.89-2.53,1.89-4.51c0-2.02-0.64-3.56-1.92-4.63c-1.28-1.07-3.02-1.61-5.2-1.61h-7.76
		c-0.46,0-0.78,0.07-0.95,0.22c-0.17,0.15-0.25,0.41-0.25,0.79v10.21c0,0.38,0.06,0.65,0.19,0.82c0.13,0.17,0.36,0.25,0.69,0.25
		h7.75C289.51,155.37,291.36,154.85,292.62,153.82z"/>
	<path d="M321.46,180.24c-3.26-1.91-5.76-4.66-7.5-8.23c-1.75-3.57-2.62-7.82-2.62-12.74c0-4.96,0.88-9.26,2.65-12.89
		c1.77-3.63,4.28-6.43,7.54-8.39c3.26-1.96,7.07-2.93,11.44-2.93c4.33,0,8.11,0.98,11.35,2.93c3.24,1.95,5.74,4.75,7.5,8.39
		c1.76,3.64,2.65,7.91,2.65,12.83c0,4.88-0.87,9.11-2.62,12.71c-1.75,3.59-4.24,6.36-7.47,8.29c-3.24,1.93-7.04,2.9-11.41,2.9
		C328.56,183.11,324.72,182.15,321.46,180.24z M340.57,171.57c1.58-2.52,2.36-6.6,2.36-12.23c0-5.76-0.81-9.96-2.43-12.61
		c-1.62-2.65-4.13-3.97-7.54-3.97c-3.49,0-6.04,1.32-7.66,3.97c-1.62,2.65-2.43,6.85-2.43,12.61c0,5.63,0.8,9.71,2.4,12.23
		c1.6,2.52,4.16,3.78,7.69,3.78C336.46,175.35,338.99,174.09,340.57,171.57z"/>
	<path d="M395.3,160.82c-3.13,2.5-7.26,3.75-12.39,3.75h-9.46c-0.46,0-0.69,0.23-0.69,0.69v15.76c0,0.97-0.55,1.45-1.64,1.45h-8.07
		c-0.5,0-0.85-0.1-1.04-0.32c-0.19-0.21-0.28-0.53-0.28-0.95v-44.33c0-0.8,0.34-1.2,1.01-1.2h18.92c3.49,0,6.61,0.54,9.36,1.61
		c2.75,1.07,4.94,2.7,6.56,4.89s2.43,4.88,2.43,8.07C400,154.8,398.43,158.32,395.3,160.82z M386.57,145.21
		c-1.39-1.09-3.26-1.64-5.61-1.64h-7c-0.42,0-0.72,0.08-0.91,0.25c-0.19,0.17-0.28,0.46-0.28,0.88v10.78c0,0.42,0.06,0.72,0.19,0.91
		s0.36,0.28,0.69,0.28h7.75c2.23,0,3.99-0.59,5.3-1.77c1.3-1.18,1.95-2.79,1.95-4.86C388.65,147.93,387.95,146.31,386.57,145.21z"/>
	<path d="M415.35,180.24c-3.26-1.91-5.76-4.66-7.5-8.23c-1.75-3.57-2.62-7.82-2.62-12.74c0-4.96,0.88-9.26,2.65-12.89
		c1.77-3.63,4.28-6.43,7.54-8.39c3.26-1.96,7.07-2.93,11.44-2.93c4.33,0,8.11,0.98,11.35,2.93c3.24,1.95,5.74,4.75,7.5,8.39
		c1.76,3.64,2.65,7.91,2.65,12.83c0,4.88-0.87,9.11-2.62,12.71c-1.75,3.59-4.24,6.36-7.47,8.29c-3.24,1.93-7.04,2.9-11.41,2.9
		C422.44,183.11,418.61,182.15,415.35,180.24z M434.45,171.57c1.58-2.52,2.36-6.6,2.36-12.23c0-5.76-0.81-9.96-2.43-12.61
		c-1.62-2.65-4.13-3.97-7.54-3.97c-3.49,0-6.04,1.32-7.66,3.97c-1.62,2.65-2.43,6.85-2.43,12.61c0,5.63,0.8,9.71,2.4,12.23
		c1.6,2.52,4.16,3.78,7.69,3.78C430.34,175.35,432.88,174.09,434.45,171.57z"/>
	<path d="M478.72,143.86c-1.41-0.69-3.25-1.04-5.52-1.04c-2.56,0-4.52,0.46-5.86,1.39c-1.35,0.92-2.02,2.14-2.02,3.66
		c0,2.19,1.7,3.78,5.11,4.79l9.96,2.84c3.74,1.05,6.53,2.71,8.35,4.98c1.83,2.27,2.74,5,2.74,8.2c0,2.94-0.76,5.5-2.27,7.66
		c-1.51,2.17-3.69,3.84-6.53,5.01c-2.84,1.18-6.17,1.77-9.99,1.77c-4.29,0-8.16-0.73-11.6-2.18c-3.45-1.45-5.97-3.44-7.57-5.96
		c-0.17-0.29-0.25-0.57-0.25-0.82c0-0.34,0.21-0.69,0.63-1.07l4.86-3.34c0.42-0.25,0.8-0.38,1.13-0.38c0.38,0,0.69,0.17,0.95,0.5
		c1.55,2.02,3.13,3.45,4.73,4.29c1.6,0.84,3.72,1.26,6.37,1.26c2.82,0,5.02-0.44,6.62-1.32c1.6-0.88,2.4-2.21,2.4-3.97
		c0-1.13-0.4-2.1-1.2-2.9c-0.8-0.8-2.14-1.49-4.04-2.08l-9.52-2.71c-3.62-1.01-6.41-2.7-8.39-5.08s-2.96-5.08-2.96-8.1
		c0-2.69,0.75-5.11,2.24-7.25c1.49-2.14,3.6-3.84,6.34-5.08c2.73-1.24,5.88-1.86,9.46-1.86c3.53,0,6.77,0.6,9.71,1.8
		c2.94,1.2,5.19,2.81,6.75,4.82c0.25,0.34,0.38,0.63,0.38,0.88s-0.13,0.48-0.38,0.69l-5.3,3.91c-0.25,0.17-0.44,0.25-0.57,0.25
		c-0.21,0-0.55-0.23-1.01-0.69C481.37,145.51,480.12,144.55,478.72,143.86z"/>
</g>
<g>
	<line x1="80.78" y1="158.41" x2="191.27" y2="158.41"/>
	<rect x="80.78" y="156.38" width="110.49" height="4.07"/>
</g>
</svg>
