<?xml version="1.0" encoding="utf-8"?>
<!-- Generator: Adobe Illustrator 24.3.0, SVG Export Plug-In . SVG Version: 6.00 Build 0)  -->
<svg version="1.1" id="Calque_1" xmlns="http://www.w3.org/2000/svg" xmlns:xlink="http://www.w3.org/1999/xlink" x="0px" y="0px"
	 viewBox="0 0 1241.46 528.65" style="enable-background:new 0 0 1241.46 528.65;" xml:space="preserve">
<style type="text/css">
	.st0{fill:#FFFFFF;}
</style>
<g>
	<path class="st0" d="M251.81,134.22c7.73,3.5,14.1,8.27,19.11,14.31c5.01,6.04,8.18,12.8,9.51,20.29c0.24,0.85,0.36,1.81,0.36,2.9
		c0,0.72-0.18,1.21-0.54,1.45c-0.36,0.24-0.91,0.42-1.63,0.54l-24.45,1.63c-1.09,0-1.78-0.18-2.08-0.54
		c-0.3-0.36-0.57-1.09-0.81-2.17c-1.33-6.64-3.98-11.89-7.97-15.76c-3.98-3.86-9.3-5.8-15.94-5.8c-19.32,0-28.98,15.46-28.98,46.37
		c0,16.06,2.41,27.77,7.25,35.14c4.83,7.37,12.19,11.05,22.1,11.05c7.25,0,13.37-1.81,18.38-5.43c5.01-3.62,9.08-9.54,12.23-17.75
		c0.36-0.84,1.15-1.27,2.35-1.27c0.72,0,1.27,0.06,1.63,0.18l17.75,3.8c1.69,0.61,2.35,2.11,1.99,4.53
		c-1.21,5.19-4.02,10.81-8.42,16.84c-4.41,6.04-10.6,11.29-18.56,15.76c-7.97,4.47-17.51,6.7-28.62,6.7
		c-12.44,0-23.27-2.93-32.51-8.79c-9.24-5.85-16.33-14.06-21.28-24.63c-4.95-10.56-7.43-22.79-7.43-36.68
		c0-13.77,2.47-25.78,7.43-36.04c4.95-10.26,12.04-18.14,21.28-23.64c9.24-5.49,20.07-8.24,32.51-8.24
		C235.63,128.96,244.08,130.72,251.81,134.22z"/>
	<path class="st0" d="M304.15,130.78h91.29c1.81,0,2.72,1.03,2.72,3.08l-0.18,16.3c0,2.54-1.27,3.8-3.8,3.8h-57.78
		c-2.3,0-3.44,0.97-3.44,2.9v26.26c0,2.05,0.91,3.08,2.72,3.08h38.4c2.05,0,3.08,0.97,3.08,2.9v17.39c0,1.69-0.97,2.54-2.9,2.54
		h-38.76c-1.69,0-2.54,0.72-2.54,2.17v28.44c0,0.85,0.15,1.45,0.45,1.81c0.3,0.36,0.82,0.54,1.54,0.54h61.94
		c2.17,0,3.26,0.91,3.26,2.72v17.21c0,2.17-1.21,3.26-3.62,3.26h-91.29c-1.45,0-2.48-0.3-3.08-0.91c-0.61-0.6-0.91-1.57-0.91-2.9
		V134.22C301.25,131.92,302.22,130.78,304.15,130.78z"/>
	<path class="st0" d="M529.1,261.91c0,0.97-0.3,1.75-0.91,2.35c-0.61,0.61-1.33,0.91-2.17,0.91H499.4c-2.05,0-3.38-1.09-3.98-3.26
		l-19.56-50.71c-0.36-0.96-0.91-1.63-1.63-1.99s-1.87-0.54-3.44-0.54h-17.21c-0.72,0-1.27,0.21-1.63,0.63
		c-0.36,0.42-0.54,0.88-0.54,1.36v50.17c0,1.57-0.39,2.69-1.18,3.35c-0.79,0.67-2.02,1-3.71,1h-23c-1.45,0-2.44-0.3-2.99-0.91
		c-0.54-0.6-0.81-1.51-0.81-2.72V134.22c0-2.29,0.96-3.44,2.9-3.44h56.51c16.3,0,28.92,3.2,37.85,9.6
		c8.93,6.4,13.4,15.52,13.4,27.35c0,8.82-2.35,16.33-7.06,22.55c-4.71,6.22-10.63,10.6-17.75,13.13c-0.97,0.36-1.21,1.27-0.72,2.72
		l23.91,54.16C528.98,261,529.1,261.55,529.1,261.91z M492.15,182.85c3.62-2.96,5.43-7.27,5.43-12.95c0-5.8-1.84-10.23-5.52-13.31
		c-3.69-3.08-8.67-4.62-14.94-4.62h-22.28c-1.33,0-2.24,0.21-2.72,0.63c-0.48,0.42-0.72,1.18-0.72,2.26v29.34
		c0,1.09,0.18,1.87,0.54,2.35c0.36,0.48,1.02,0.72,1.99,0.72h22.28C483.22,187.29,488.53,185.81,492.15,182.85z"/>
	<path class="st0" d="M646.92,202.95c-9,7.19-20.86,10.78-35.59,10.78h-27.17c-1.33,0-1.99,0.67-1.99,1.99V261
		c0,2.78-1.57,4.17-4.71,4.17h-23.18c-1.45,0-2.44-0.3-2.99-0.91c-0.54-0.6-0.81-1.51-0.81-2.72V134.22c0-2.29,0.96-3.44,2.9-3.44
		h54.34c10.02,0,18.99,1.54,26.9,4.62c7.91,3.08,14.19,7.76,18.84,14.04c4.65,6.28,6.97,14.01,6.97,23.18
		C660.41,185.66,655.91,195.77,646.92,202.95z M621.83,158.12c-3.98-3.14-9.36-4.71-16.12-4.71h-20.1c-1.21,0-2.08,0.24-2.63,0.72
		c-0.54,0.48-0.81,1.33-0.81,2.54v30.97c0,1.21,0.18,2.08,0.54,2.63c0.36,0.54,1.02,0.82,1.99,0.82h22.28
		c6.4,0,11.47-1.69,15.21-5.07c3.74-3.38,5.61-8.03,5.61-13.95C627.81,165.91,625.82,161.27,621.83,158.12z"/>
</g>
<g>
	<path class="st0" d="M836.64,379.87v17.57c0,0.85-0.3,1.57-0.91,2.17c-0.61,0.61-1.51,0.91-2.72,0.91h-71.54
		c-2.29,0-3.44-1.02-3.44-3.08v-17.57c0-1.81,1.02-2.72,3.08-2.72h18.84c1.33,0,1.99-0.42,1.99-1.27v-76.07
		c0-0.96-0.18-1.6-0.54-1.9c-0.36-0.3-1.03-0.33-1.99-0.09l-17.57,5.25l-1.27,0.18c-1.81,0-2.72-1.21-2.72-3.62v-11.95
		c0-1.21,0.18-2.08,0.54-2.63c0.36-0.54,1.09-1.11,2.17-1.72l30.25-15.03c1.69-0.84,3.05-1.42,4.08-1.72
		c1.02-0.3,2.2-0.45,3.53-0.45h12.5c0.84,0,1.51,0.3,1.99,0.91c0.48,0.61,0.72,1.39,0.72,2.35v105.96c0,1.21,0.54,1.81,1.63,1.81
		h18.11C835.55,377.15,836.64,378.06,836.64,379.87z"/>
	<path class="st0" d="M911.71,266.76c0.91-0.42,2.32-0.63,4.26-0.63h22.64c1.93,0,2.9,1.09,2.9,3.26v75.89
		c0,0.61,0.18,1.09,0.54,1.45s0.78,0.54,1.27,0.54h14.85c2.29,0,3.44,0.91,3.44,2.72v15.58c0,2.17-1.21,3.26-3.62,3.26H943.5
		c-1.33,0-1.99,0.72-1.99,2.17v25.36c0,1.45-0.36,2.51-1.09,3.17c-0.72,0.67-1.93,1-3.62,1h-23.55c-2.54,0-3.8-1.21-3.8-3.62v-26.44
		c0-1.09-0.72-1.63-2.17-1.63h-54.34c-2.54,0-3.8-1.09-3.8-3.26v-15.03c0-1.09,0.33-2.23,1-3.44c0.66-1.21,1.9-3.02,3.71-5.43
		l54.7-72.09C909.75,268.12,910.81,267.19,911.71,266.76z M908,347.27c0.48,0,0.87-0.12,1.18-0.36c0.3-0.24,0.45-0.54,0.45-0.91
		v-45.1c0-1.69-0.18-2.54-0.54-2.54c-0.48,0-1.15,0.61-1.99,1.81l-32.42,44.74c-0.48,0.72-0.72,1.21-0.72,1.45
		c0,0.61,0.66,0.91,1.99,0.91H908z"/>
	<path class="st0" d="M1016.31,342.38c7.97-6.88,13.88-12.38,17.75-16.48c3.86-4.1,6.55-7.7,8.06-10.78
		c1.51-3.08,2.26-6.43,2.26-10.05c0-5.43-1.9-9.75-5.71-12.95c-3.8-3.2-8.6-4.8-14.4-4.8c-5.07,0-9.75,1.48-14.04,4.44
		c-4.29,2.96-8.42,7.82-12.41,14.58c-0.36,0.97-1.15,1.45-2.35,1.45c-0.85,0-1.69-0.24-2.54-0.72l-16.12-8.33
		c-1.45-0.96-2.17-2.05-2.17-3.26c0-0.84,0.3-1.75,0.91-2.72c11.95-18.96,28.8-28.44,50.53-28.44c9.66,0,18.2,1.63,25.63,4.89
		c7.43,3.26,13.19,7.97,17.3,14.13c4.1,6.16,6.16,13.4,6.16,21.74c0,7.37-1.96,14.13-5.89,20.29c-3.92,6.16-10.66,13.04-20.2,20.65
		l-33.51,26.26c-0.72,0.48-1.09,0.91-1.09,1.27c0,0.61,0.72,0.91,2.17,0.91H1073c2.29,0,3.44,0.97,3.44,2.9v19.92
		c0,2.17-1.21,3.26-3.62,3.26h-94.37c-1.57,0-2.66-0.27-3.26-0.82c-0.61-0.54-0.91-1.54-0.91-2.99v-13.95
		c0-1.09,0.48-2.26,1.45-3.53c0.96-1.27,3.26-3.41,6.88-6.43L1016.31,342.38z"/>
</g>
<rect x="417.48" y="333.59" class="st0" width="315.75" height="7.24"/>
</svg>
