<?xml version="1.0" encoding="utf-8"?>
<!-- Generator: Adobe Illustrator 24.3.0, SVG Export Plug-In . SVG Version: 6.00 Build 0)  -->
<svg version="1.1" id="Calque_1" xmlns="http://www.w3.org/2000/svg" xmlns:xlink="http://www.w3.org/1999/xlink" x="0px" y="0px"
	 viewBox="0 0 573 244" style="enable-background:new 0 0 573 244;" xml:space="preserve">
<g>
	<path d="M144.27,72.08c2.98,1.35,5.43,3.19,7.36,5.51c1.93,2.33,3.15,4.93,3.66,7.82c0.09,0.33,0.14,0.7,0.14,1.12
		c0,0.28-0.07,0.46-0.21,0.56c-0.14,0.09-0.35,0.16-0.63,0.21l-9.42,0.63c-0.42,0-0.69-0.07-0.8-0.21
		c-0.12-0.14-0.22-0.42-0.31-0.84c-0.51-2.56-1.54-4.58-3.07-6.07c-1.54-1.49-3.58-2.23-6.14-2.23c-7.44,0-11.17,5.96-11.17,17.87
		c0,6.19,0.93,10.7,2.79,13.54c1.86,2.84,4.7,4.26,8.51,4.26c2.79,0,5.15-0.7,7.08-2.09c1.93-1.4,3.5-3.67,4.71-6.84
		c0.14-0.33,0.44-0.49,0.91-0.49c0.28,0,0.49,0.02,0.63,0.07l6.84,1.46c0.65,0.23,0.91,0.81,0.77,1.75c-0.47,2-1.55,4.17-3.25,6.49
		c-1.7,2.33-4.08,4.35-7.15,6.07c-3.07,1.72-6.75,2.58-11.03,2.58c-4.79,0-8.97-1.13-12.53-3.38c-3.56-2.26-6.29-5.42-8.2-9.49
		c-1.91-4.07-2.86-8.78-2.86-14.13c0-5.3,0.95-9.93,2.86-13.89c1.91-3.95,4.64-6.99,8.2-9.11c3.56-2.12,7.73-3.17,12.53-3.17
		C138.03,70.05,141.29,70.73,144.27,72.08z"/>
	<path d="M164.43,70.75h35.17c0.7,0,1.05,0.4,1.05,1.19l-0.07,6.28c0,0.98-0.49,1.46-1.47,1.46h-22.26c-0.88,0-1.33,0.37-1.33,1.12
		v10.12c0,0.79,0.35,1.19,1.05,1.19h14.79c0.79,0,1.19,0.37,1.19,1.12v6.7c0,0.65-0.37,0.98-1.12,0.98h-14.93
		c-0.65,0-0.98,0.28-0.98,0.84v10.96c0,0.33,0.06,0.56,0.17,0.7c0.12,0.14,0.31,0.21,0.59,0.21h23.87c0.84,0,1.26,0.35,1.26,1.05
		v6.63c0,0.84-0.47,1.26-1.4,1.26h-35.17c-0.56,0-0.95-0.12-1.19-0.35c-0.23-0.23-0.35-0.6-0.35-1.12V72.08
		C163.32,71.19,163.69,70.75,164.43,70.75z"/>
	<path d="M251.11,121.28c0,0.37-0.12,0.67-0.35,0.91c-0.23,0.23-0.51,0.35-0.84,0.35h-10.26c-0.79,0-1.3-0.42-1.54-1.26l-7.54-19.54
		c-0.14-0.37-0.35-0.63-0.63-0.77c-0.28-0.14-0.72-0.21-1.33-0.21h-6.63c-0.28,0-0.49,0.08-0.63,0.24
		c-0.14,0.16-0.21,0.34-0.21,0.52v19.33c0,0.61-0.15,1.04-0.45,1.29c-0.3,0.26-0.78,0.38-1.43,0.38h-8.86
		c-0.56,0-0.94-0.12-1.15-0.35c-0.21-0.23-0.31-0.58-0.31-1.05V72.08c0-0.88,0.37-1.33,1.12-1.33h21.77c6.28,0,11.14,1.23,14.58,3.7
		c3.44,2.47,5.16,5.98,5.16,10.54c0,3.4-0.91,6.29-2.72,8.69c-1.81,2.4-4.09,4.08-6.84,5.06c-0.37,0.14-0.47,0.49-0.28,1.05
		l9.21,20.87C251.06,120.93,251.11,121.14,251.11,121.28z M236.87,90.81c1.4-1.14,2.09-2.8,2.09-4.99c0-2.23-0.71-3.94-2.13-5.13
		c-1.42-1.19-3.34-1.78-5.76-1.78h-8.58c-0.51,0-0.86,0.08-1.05,0.25c-0.19,0.16-0.28,0.45-0.28,0.87v11.3
		c0,0.42,0.07,0.72,0.21,0.91c0.14,0.19,0.4,0.28,0.77,0.28h8.58C233.43,92.53,235.47,91.95,236.87,90.81z"/>
	<path d="M296.5,98.56c-3.47,2.77-8.04,4.15-13.71,4.15h-10.47c-0.51,0-0.77,0.26-0.77,0.77v17.45c0,1.07-0.61,1.61-1.81,1.61h-8.93
		c-0.56,0-0.94-0.12-1.15-0.35c-0.21-0.23-0.31-0.58-0.31-1.05V72.08c0-0.88,0.37-1.33,1.12-1.33h20.94c3.86,0,7.32,0.59,10.36,1.78
		c3.05,1.19,5.47,2.99,7.26,5.41c1.79,2.42,2.69,5.4,2.69,8.93C301.7,91.9,299.97,95.79,296.5,98.56z M286.83,81.29
		c-1.54-1.21-3.61-1.81-6.21-1.81h-7.75c-0.47,0-0.8,0.09-1.01,0.28c-0.21,0.19-0.31,0.51-0.31,0.98v11.93
		c0,0.47,0.07,0.8,0.21,1.01c0.14,0.21,0.4,0.31,0.77,0.31h8.58c2.47,0,4.42-0.65,5.86-1.95c1.44-1.3,2.16-3.09,2.16-5.37
		C289.14,84.29,288.37,82.5,286.83,81.29z"/>
</g>
<g>
	<path d="M369.6,166.72v6.77c0,0.33-0.12,0.61-0.35,0.84c-0.23,0.23-0.58,0.35-1.05,0.35h-27.57c-0.88,0-1.33-0.39-1.33-1.19v-6.77
		c0-0.7,0.39-1.05,1.19-1.05h7.26c0.51,0,0.77-0.16,0.77-0.49v-29.31c0-0.37-0.07-0.62-0.21-0.73c-0.14-0.12-0.4-0.13-0.77-0.04
		l-6.77,2.02l-0.49,0.07c-0.7,0-1.05-0.46-1.05-1.4v-4.61c0-0.46,0.07-0.8,0.21-1.01c0.14-0.21,0.42-0.43,0.84-0.66l11.65-5.79
		c0.65-0.32,1.17-0.55,1.57-0.66c0.4-0.12,0.85-0.17,1.36-0.17h4.82c0.32,0,0.58,0.12,0.77,0.35c0.19,0.23,0.28,0.54,0.28,0.91
		v40.83c0,0.46,0.21,0.7,0.63,0.7h6.98C369.18,165.68,369.6,166.03,369.6,166.72z"/>
	<path d="M398.52,123.14c0.35-0.16,0.9-0.24,1.64-0.24h8.72c0.74,0,1.12,0.42,1.12,1.26v29.24c0,0.23,0.07,0.42,0.21,0.56
		c0.14,0.14,0.3,0.21,0.49,0.21h5.72c0.88,0,1.33,0.35,1.33,1.05v6c0,0.84-0.47,1.26-1.4,1.26h-5.58c-0.51,0-0.77,0.28-0.77,0.84
		v9.77c0,0.56-0.14,0.97-0.42,1.22c-0.28,0.26-0.74,0.38-1.4,0.38h-9.07c-0.98,0-1.47-0.46-1.47-1.39V163.1
		c0-0.42-0.28-0.63-0.84-0.63h-20.94c-0.98,0-1.47-0.42-1.47-1.26v-5.79c0-0.42,0.13-0.86,0.38-1.33c0.26-0.46,0.73-1.16,1.43-2.09
		l21.08-27.78C397.76,123.67,398.17,123.31,398.52,123.14z M397.09,154.16c0.19,0,0.34-0.05,0.45-0.14
		c0.12-0.09,0.17-0.21,0.17-0.35V136.3c0-0.65-0.07-0.98-0.21-0.98c-0.19,0-0.44,0.23-0.77,0.7l-12.49,17.24
		c-0.19,0.28-0.28,0.47-0.28,0.56c0,0.23,0.26,0.35,0.77,0.35H397.09z"/>
	<path d="M438.82,152.28c3.07-2.65,5.35-4.77,6.84-6.35c1.49-1.58,2.52-2.97,3.11-4.15c0.58-1.19,0.87-2.48,0.87-3.87
		c0-2.09-0.73-3.76-2.2-4.99c-1.47-1.23-3.31-1.85-5.55-1.85c-1.95,0-3.76,0.57-5.41,1.71c-1.65,1.14-3.25,3.01-4.78,5.62
		c-0.14,0.37-0.44,0.56-0.91,0.56c-0.33,0-0.65-0.09-0.98-0.28l-6.21-3.21c-0.56-0.37-0.84-0.79-0.84-1.26
		c0-0.33,0.12-0.67,0.35-1.05c4.61-7.3,11.1-10.96,19.47-10.96c3.72,0,7.01,0.63,9.88,1.88s5.08,3.07,6.66,5.44
		c1.58,2.37,2.37,5.16,2.37,8.37c0,2.84-0.76,5.44-2.27,7.82c-1.51,2.37-4.11,5.03-7.78,7.96l-12.91,10.12
		c-0.28,0.19-0.42,0.35-0.42,0.49c0,0.23,0.28,0.35,0.84,0.35h21.7c0.88,0,1.33,0.37,1.33,1.12v7.68c0,0.84-0.47,1.26-1.4,1.26
		h-36.36c-0.6,0-1.02-0.1-1.26-0.31c-0.23-0.21-0.35-0.59-0.35-1.15v-5.37c0-0.42,0.19-0.87,0.56-1.36
		c0.37-0.49,1.26-1.31,2.65-2.48L438.82,152.28z"/>
</g>
<rect x="208.1" y="148.89" width="121.66" height="2.79"/>
</svg>
