<?xml version="1.0" encoding="utf-8"?>
<!-- Generator: Adobe Illustrator 24.3.0, SVG Export Plug-In . SVG Version: 6.00 Build 0)  -->
<svg version="1.1" id="Calque_1" xmlns="http://www.w3.org/2000/svg" xmlns:xlink="http://www.w3.org/1999/xlink" x="0px" y="0px"
	 viewBox="0 0 101.13 101.13" style="enable-background:new 0 0 101.13 101.13;" xml:space="preserve">
<g>
	<path d="M20.13,89.95c-5.05,0-7.78-3.53-7.78-6.86V50.94c0-3.82,2.28-7.68,7.39-7.68c5.05,0,7.78,3.53,7.78,6.85v32.15
		C27.52,86.09,25.23,89.95,20.13,89.95z M19.74,45.63c-4.65,0-5.01,4.06-5.01,5.31v32.15c0,2.17,1.9,4.49,5.41,4.49
		c4.65,0,5.02-4.07,5.02-5.31V50.11C25.15,47.94,23.25,45.63,19.74,45.63z"/>
	<path d="M77.51,89.45H40.34c-3.49,0-5.22-1.47-6.75-2.76c-0.92-0.78-1.72-1.45-2.86-1.76c-0.63-0.17-1.01-0.82-0.84-1.45
		c0.17-0.63,0.81-1.01,1.45-0.84c1.65,0.44,2.73,1.35,3.77,2.24c1.4,1.18,2.6,2.2,5.22,2.2h37.17c2.7,0,5.42-1.25,5.42-4.05
		c0-2.79-1.97-4.46-5.28-4.46h-1.69c-0.65,0-1.19-0.53-1.19-1.19c0-0.65,0.53-1.19,1.19-1.19h4.65c2.88,0,5.79-1.34,5.79-4.34
		c0-2.99-2.11-4.78-5.65-4.78h-4.8c-0.65,0-1.19-0.53-1.19-1.19c0-0.65,0.53-1.19,1.19-1.19h4.53c2.94,0,5.91-1.37,5.91-4.44
		c0-3.06-2.16-4.88-5.77-4.88h-4.68c-0.65,0-1.19-0.53-1.19-1.19s0.53-1.19,1.19-1.19h3.87c3.27,0,6.58-1.53,6.58-4.96
		c0-3.41-2.4-5.45-6.42-5.45h-15.9c-2.32,0-3.21-0.95-3.53-1.75c-0.47-1.13-0.02-2.53,1.2-3.75l2.54-2.54
		c1.17-1.17,4.53-6.14,4.53-13.31c0-7.52-5.38-7.73-5.43-7.73c-1.3,0-3.23,0.87-3.54,1.84c-0.65,2.21-2.8,8.14-4.19,10.71
		c-1.14,2.1-7.08,7.66-12.13,12.26l-0.72,0.66c-0.8,0.73-2.25,2.7-3.65,4.61c-1.46,1.98-2.97,4.03-4.02,5.08
		c-1.01,1-2.31,2.07-4.31,2.45c-0.65,0.12-1.26-0.3-1.38-0.95c-0.12-0.64,0.3-1.26,0.95-1.38c1.29-0.24,2.16-0.9,3.08-1.8
		c0.92-0.92,2.38-2.89,3.79-4.8c1.54-2.09,2.99-4.06,3.96-4.95l0.73-0.67c7-6.38,10.92-10.3,11.64-11.64
		c1.25-2.3,3.38-8.12,4.01-10.27c0.74-2.31,3.85-3.52,5.81-3.52c2.02,0,7.8,1.86,7.8,10.1c0,8.01-3.77,13.53-5.22,14.98l-2.54,2.54
		c-0.6,0.6-0.71,1.07-0.68,1.17c0.04,0.06,0.38,0.28,1.34,0.28h15.9c5.34,0,8.79,3.07,8.79,7.82c0,2.6-1.33,4.73-3.54,6.01
		c2.24,1.2,3.54,3.39,3.54,6.2c0,2.42-1.24,4.39-3.29,5.58c2.08,1.21,3.29,3.31,3.29,6c0,3.13-2.11,5.51-5.38,6.37
		c1.22,1.18,1.9,2.82,1.9,4.8C85.3,86.82,82.1,89.45,77.51,89.45z"/>
</g>
</svg>
