<?xml version="1.0" encoding="utf-8"?>
<!-- Generator: Adobe Illustrator 24.3.0, SVG Export Plug-In . SVG Version: 6.00 Build 0)  -->
<svg version="1.1" id="Calque_1" xmlns="http://www.w3.org/2000/svg" xmlns:xlink="http://www.w3.org/1999/xlink" x="0px" y="0px"
	 viewBox="0 0 197.58 253.25" style="enable-background:new 0 0 197.58 253.25;" xml:space="preserve">
<style type="text/css">
	.st0{fill:#F47051;}
</style>
<g>
	<circle class="st0" cx="98.79" cy="85.7" r="52.22"/>
	<g>
		<line x1="64.49" y1="218.51" x2="133.1" y2="218.51"/>
		<rect x="64.48" y="217.25" width="68.61" height="2.53"/>
	</g>
	<g>
		<path d="M126.85,172.7c-18.72,0-45.9-0.02-81.77-0.07l-5.92-0.01c-2.96,0-5.54-1.82-6.89-4.86c-1.44-3.25-1.41-6.45,0.1-9.02
			c5.95-10.16,58.17-99.27,58.91-100.37c1.21-1.78,3.88-3.85,7.45-3.85c3.76,0,6.46,2.98,6.75,3.32c0.07,0.08,0.14,0.18,0.2,0.27
			l49.07,82.64c0.54,0.9,0.24,2.06-0.66,2.6c-0.9,0.54-2.06,0.24-2.6-0.66l-48.97-82.48c-0.59-0.61-2.16-1.9-3.79-1.9
			c-2.23,0-3.8,1.43-4.31,2.19c-0.95,1.49-38.86,66.17-58.78,100.16c-1.12,1.9-0.56,4.08,0.1,5.56c0.43,0.97,1.45,2.61,3.42,2.61
			l5.92,0.01c91.16,0.12,111.72,0.06,112.9,0c2.22-0.13,3.77-2.1,4.06-2.77c0.47-1.1,0.88-4.07,0.11-5.41
			c-0.2-0.35-1.95-3.28-4.72-7.95l-0.49-0.82c-0.53-0.9-0.24-2.06,0.66-2.6c0.9-0.54,2.06-0.24,2.6,0.66l0.49,0.82
			c2.78,4.68,4.53,7.62,4.73,7.97c1.68,2.88,0.78,7.26,0.11,8.82c-0.79,1.84-3.47,4.83-7.32,5.06
			C157.26,172.67,146.91,172.7,126.85,172.7z"/>
		<path d="M98.79,138.83c-1.05,0-1.9-0.85-1.9-1.9V92.54c0-1.05,0.85-1.9,1.9-1.9c1.05,0,1.9,0.85,1.9,1.9v44.39
			C100.68,137.98,99.83,138.83,98.79,138.83z"/>
		<circle cx="98.79" cy="150.91" r="3.69"/>
	</g>
</g>
</svg>
