<?xml version="1.0" encoding="utf-8"?>
<!-- Generator: Adobe Illustrator 24.3.0, SVG Export Plug-In . SVG Version: 6.00 Build 0)  -->
<svg version="1.1" id="Calque_1" xmlns="http://www.w3.org/2000/svg" xmlns:xlink="http://www.w3.org/1999/xlink" x="0px" y="0px"
	 viewBox="0 0 101.13 101.13" style="enable-background:new 0 0 101.13 101.13;" xml:space="preserve">
<g>
	<path d="M66.46,84.04c-10.61,0-26-0.01-46.33-0.04l-3.35,0c-1.68,0-3.14-1.03-3.9-2.75c-0.82-1.84-0.8-3.66,0.06-5.11
		c3.37-5.75,32.95-56.24,33.38-56.86c0.68-1.01,2.2-2.18,4.22-2.18c2.13,0,3.66,1.69,3.83,1.88c0.04,0.05,0.08,0.1,0.11,0.16
		l27.8,46.82c0.3,0.51,0.14,1.17-0.38,1.47c-0.51,0.3-1.17,0.14-1.47-0.38L52.67,20.32c-0.33-0.35-1.22-1.08-2.15-1.08
		c-1.26,0-2.15,0.81-2.44,1.24c-0.54,0.84-22.02,37.49-33.3,56.74c-0.63,1.08-0.32,2.31,0.06,3.15c0.24,0.55,0.82,1.48,1.94,1.48
		l3.36,0c51.65,0.07,63.29,0.04,63.96,0c1.26-0.07,2.14-1.19,2.3-1.57c0.27-0.63,0.5-2.31,0.06-3.06c-0.11-0.2-1.1-1.86-2.67-4.5
		l-0.28-0.47c-0.3-0.51-0.13-1.17,0.38-1.47c0.51-0.3,1.17-0.13,1.47,0.38l0.28,0.47c1.57,2.65,2.56,4.32,2.68,4.52
		c0.95,1.63,0.44,4.11,0.06,4.99c-0.45,1.04-1.97,2.74-4.15,2.87C83.69,84.03,77.82,84.04,66.46,84.04z"/>
	<path d="M50.56,64.85c-0.59,0-1.07-0.48-1.07-1.07V38.63c0-0.59,0.48-1.07,1.07-1.07c0.59,0,1.07,0.48,1.07,1.07v25.15
		C51.64,64.37,51.15,64.85,50.56,64.85z"/>
	<circle cx="50.56" cy="71.7" r="2.09"/>
</g>
</svg>
