<?xml version="1.0" encoding="utf-8"?>
<!-- Generator: Adobe Illustrator 24.3.0, SVG Export Plug-In . SVG Version: 6.00 Build 0)  -->
<svg version="1.1" id="Calque_1" xmlns="http://www.w3.org/2000/svg" xmlns:xlink="http://www.w3.org/1999/xlink" x="0px" y="0px"
	 viewBox="0 0 573 244" style="enable-background:new 0 0 573 244;" xml:space="preserve">
<g>
	<path d="M170.38,109.37c1.56,0.71,2.85,1.67,3.87,2.9c1.01,1.22,1.66,2.59,1.92,4.11c0.05,0.17,0.07,0.37,0.07,0.59
		c0,0.15-0.04,0.25-0.11,0.29s-0.18,0.09-0.33,0.11l-4.95,0.33c-0.22,0-0.36-0.04-0.42-0.11c-0.06-0.07-0.12-0.22-0.17-0.44
		c-0.27-1.34-0.81-2.41-1.61-3.19c-0.81-0.78-1.88-1.17-3.23-1.17c-3.91,0-5.87,3.13-5.87,9.38c0,3.25,0.49,5.62,1.47,7.11
		c0.98,1.49,2.47,2.24,4.47,2.24c1.47,0,2.71-0.37,3.72-1.1c1.01-0.73,1.84-1.93,2.47-3.59c0.07-0.17,0.23-0.26,0.48-0.26
		c0.15,0,0.26,0.01,0.33,0.04l3.59,0.77c0.34,0.12,0.48,0.43,0.4,0.92c-0.24,1.05-0.81,2.19-1.7,3.41s-2.14,2.29-3.76,3.19
		c-1.61,0.91-3.54,1.36-5.79,1.36c-2.52,0-4.71-0.59-6.58-1.78s-3.31-2.85-4.31-4.99s-1.5-4.61-1.5-7.42c0-2.79,0.5-5.22,1.5-7.29
		s2.44-3.67,4.31-4.78c1.87-1.11,4.06-1.67,6.58-1.67C167.11,108.3,168.82,108.66,170.38,109.37z"/>
	<path d="M180.97,108.67h18.48c0.37,0,0.55,0.21,0.55,0.62l-0.04,3.3c0,0.51-0.26,0.77-0.77,0.77H187.5c-0.46,0-0.7,0.2-0.7,0.59
		v5.32c0,0.42,0.18,0.62,0.55,0.62h7.77c0.42,0,0.62,0.2,0.62,0.59v3.52c0,0.34-0.2,0.51-0.59,0.51h-7.84
		c-0.34,0-0.51,0.15-0.51,0.44v5.75c0,0.17,0.03,0.29,0.09,0.37c0.06,0.07,0.17,0.11,0.31,0.11h12.54c0.44,0,0.66,0.18,0.66,0.55
		v3.48c0,0.44-0.24,0.66-0.73,0.66h-18.48c-0.29,0-0.5-0.06-0.62-0.18c-0.12-0.12-0.18-0.32-0.18-0.59v-25.73
		C180.39,108.9,180.58,108.67,180.97,108.67z"/>
	<path d="M226.5,135.21c0,0.2-0.06,0.35-0.18,0.48c-0.12,0.12-0.27,0.18-0.44,0.18h-5.39c-0.42,0-0.68-0.22-0.81-0.66l-3.96-10.26
		c-0.07-0.2-0.18-0.33-0.33-0.4c-0.15-0.07-0.38-0.11-0.7-0.11h-3.48c-0.15,0-0.26,0.04-0.33,0.13c-0.07,0.08-0.11,0.18-0.11,0.27
		v10.15c0,0.32-0.08,0.54-0.24,0.68c-0.16,0.13-0.41,0.2-0.75,0.2h-4.66c-0.29,0-0.5-0.06-0.6-0.18c-0.11-0.12-0.17-0.3-0.17-0.55
		v-25.77c0-0.46,0.2-0.7,0.59-0.7h11.44c3.3,0,5.85,0.65,7.66,1.94c1.81,1.3,2.71,3.14,2.71,5.54c0,1.78-0.48,3.3-1.43,4.56
		s-2.15,2.14-3.59,2.66c-0.2,0.07-0.24,0.26-0.15,0.55l4.84,10.96C226.48,135.03,226.5,135.14,226.5,135.21z M219.03,119.21
		c0.73-0.6,1.1-1.47,1.1-2.62c0-1.17-0.37-2.07-1.12-2.69c-0.75-0.62-1.75-0.93-3.02-0.93h-4.51c-0.27,0-0.45,0.04-0.55,0.13
		c-0.1,0.09-0.15,0.24-0.15,0.46v5.94c0,0.22,0.04,0.38,0.11,0.48c0.07,0.1,0.21,0.15,0.4,0.15h4.51
		C217.22,120.11,218.29,119.81,219.03,119.21z"/>
	<path d="M250.35,123.28c-1.82,1.45-4.22,2.18-7.2,2.18h-5.5c-0.27,0-0.4,0.13-0.4,0.4v9.17c0,0.56-0.32,0.84-0.95,0.84h-4.69
		c-0.29,0-0.5-0.06-0.6-0.18c-0.11-0.12-0.17-0.3-0.17-0.55v-25.77c0-0.46,0.2-0.7,0.59-0.7h11c2.03,0,3.84,0.31,5.44,0.93
		c1.6,0.62,2.87,1.57,3.81,2.84c0.94,1.27,1.41,2.84,1.41,4.69C253.08,119.78,252.17,121.83,250.35,123.28z M245.27,114.21
		c-0.81-0.63-1.89-0.95-3.26-0.95h-4.07c-0.24,0-0.42,0.05-0.53,0.15c-0.11,0.1-0.16,0.27-0.16,0.51v6.27
		c0,0.24,0.04,0.42,0.11,0.53s0.21,0.17,0.4,0.17h4.51c1.29,0,2.32-0.34,3.08-1.03c0.76-0.68,1.14-1.62,1.14-2.82
		C246.48,115.78,246.08,114.84,245.27,114.21z"/>
</g>
<g>
	<path d="M372.02,131.69v3.56c0,0.17-0.06,0.32-0.18,0.44c-0.12,0.12-0.31,0.18-0.55,0.18H356.8c-0.46,0-0.7-0.21-0.7-0.62v-3.56
		c0-0.37,0.21-0.55,0.62-0.55h3.81c0.27,0,0.4-0.09,0.4-0.26v-15.4c0-0.2-0.04-0.32-0.11-0.38s-0.21-0.07-0.4-0.02l-3.56,1.06
		l-0.26,0.04c-0.37,0-0.55-0.24-0.55-0.73v-2.42c0-0.24,0.04-0.42,0.11-0.53c0.07-0.11,0.22-0.23,0.44-0.35l6.12-3.04
		c0.34-0.17,0.62-0.29,0.82-0.35c0.21-0.06,0.45-0.09,0.71-0.09h2.53c0.17,0,0.31,0.06,0.4,0.18c0.1,0.12,0.15,0.28,0.15,0.48v21.45
		c0,0.25,0.11,0.37,0.33,0.37h3.67C371.8,131.14,372.02,131.32,372.02,131.69z"/>
	<path d="M387.21,108.8c0.18-0.08,0.47-0.13,0.86-0.13h4.58c0.39,0,0.59,0.22,0.59,0.66v15.36c0,0.12,0.04,0.22,0.11,0.29
		s0.16,0.11,0.26,0.11h3.01c0.46,0,0.7,0.18,0.7,0.55v3.15c0,0.44-0.24,0.66-0.73,0.66h-2.93c-0.27,0-0.4,0.15-0.4,0.44v5.13
		c0,0.29-0.07,0.51-0.22,0.64c-0.15,0.13-0.39,0.2-0.73,0.2h-4.77c-0.51,0-0.77-0.24-0.77-0.73v-5.35c0-0.22-0.15-0.33-0.44-0.33
		h-11c-0.51,0-0.77-0.22-0.77-0.66v-3.04c0-0.22,0.07-0.45,0.2-0.7c0.13-0.24,0.38-0.61,0.75-1.1l11.07-14.59
		C386.81,109.07,387.03,108.88,387.21,108.8z M386.46,125.09c0.1,0,0.18-0.02,0.24-0.07s0.09-0.11,0.09-0.18v-9.13
		c0-0.34-0.04-0.51-0.11-0.51c-0.1,0-0.23,0.12-0.4,0.37l-6.56,9.05c-0.1,0.15-0.15,0.24-0.15,0.29c0,0.12,0.13,0.18,0.4,0.18
		H386.46z"/>
	<path d="M408.38,124.1c1.61-1.39,2.81-2.5,3.59-3.34c0.78-0.83,1.33-1.56,1.63-2.18c0.31-0.62,0.46-1.3,0.46-2.04
		c0-1.1-0.38-1.97-1.15-2.62c-0.77-0.65-1.74-0.97-2.91-0.97c-1.03,0-1.97,0.3-2.84,0.9c-0.87,0.6-1.7,1.58-2.51,2.95
		c-0.07,0.2-0.23,0.29-0.48,0.29c-0.17,0-0.34-0.05-0.51-0.15l-3.26-1.69c-0.29-0.2-0.44-0.42-0.44-0.66c0-0.17,0.06-0.35,0.18-0.55
		c2.42-3.84,5.83-5.76,10.23-5.76c1.95,0,3.68,0.33,5.19,0.99s2.67,1.61,3.5,2.86c0.83,1.25,1.25,2.71,1.25,4.4
		c0,1.49-0.4,2.86-1.19,4.11c-0.79,1.25-2.16,2.64-4.09,4.18l-6.78,5.32c-0.15,0.1-0.22,0.18-0.22,0.26c0,0.12,0.15,0.18,0.44,0.18
		h11.4c0.46,0,0.7,0.2,0.7,0.59v4.03c0,0.44-0.24,0.66-0.73,0.66h-19.1c-0.32,0-0.54-0.05-0.66-0.17c-0.12-0.11-0.18-0.31-0.18-0.6
		v-2.82c0-0.22,0.1-0.46,0.29-0.71c0.2-0.26,0.66-0.69,1.39-1.3L408.38,124.1z"/>
</g>
<rect x="266.05" y="122.27" width="76.32" height="2.04"/>
</svg>
